<svg xmlns="http://www.w3.org/2000/svg" data-name="Layer 1" viewBox="0 0 64 80" x="0px" y="0px"><title>house</title><path d="M55,33a1,1,0,0,0-1,1V59H41V44a1,1,0,0,0-1-1H26a1,1,0,0,0-1,1V59H12V34a1,1,0,0,0-2,0V60a1,1,0,0,0,1,1H55a1,1,0,0,0,1-1V34A1,1,0,0,0,55,33Z"/><path d="M61.69,31.28,54,23.85V9a1,1,0,0,0-1-1H43a1,1,0,0,0-1,1v3.27l-9.31-9a1,1,0,0,0-1.38,0l-29,28a1,1,0,0,0,0,1.41A1,1,0,0,0,3,33a1,1,0,0,0,.69-.28L32,5.39,52.29,25l0,0,8,7.72a1,1,0,0,0,1.38-1.44Z"/><text x="0" y="79" fill="#000000" font-size="5px" font-weight="bold" font-family="'Helvetica Neue', Helvetica, Arial-Unicode, Arial, Sans-serif">Created by DOUBLE SLASH</text><text x="0" y="84" fill="#000000" font-size="5px" font-weight="bold" font-family="'Helvetica Neue', Helvetica, Arial-Unicode, Arial, Sans-serif">from the Noun Project</text></svg>